<?xml version="1.0" standalone="no"?>
<!DOCTYPE svg PUBLIC "-//W3C//DTD SVG 1.1//EN" "http://www.w3.org/Graphics/SVG/1.1/DTD/svg11.dtd" >
<svg xmlns="http://www.w3.org/2000/svg" xmlns:xlink="http://www.w3.org/1999/xlink" version="1.1">
<metadata></metadata>
<defs>
<font id="mashupregular" horiz-adv-x="1000" >
<font-face units-per-em="1000" ascent="800" descent="-200" />
<missing-glyph horiz-adv-x="500" />
<glyph horiz-adv-x="0" />
<glyph horiz-adv-x="0" />
<glyph unicode="&#xd;" horiz-adv-x="333" />
<glyph unicode=" "  horiz-adv-x="500" />
<glyph unicode="&#x09;" horiz-adv-x="500" />
<glyph unicode="&#xa0;" horiz-adv-x="500" />
<glyph unicode="!" horiz-adv-x="360" d="M176 19q0 -6 -9 -14t-18 -8q-24 0 -54.5 30t-30.5 51t16 40.5t33 19.5t40 -47.5t23 -71.5zM290 752q0 -87 -43 -302t-68 -215q-15 0 -28.5 16.5t-11.5 35.5q57 285 57 496q0 25 15 25q16 1 47.5 -21t31.5 -35z" />
<glyph unicode="&#x22;" horiz-adv-x="314" d="M298 800q0 -51 -14.5 -148t-32.5 -97q-10 0 -21.5 12.5t-11.5 20t9 89.5t9 146q0 18 12 18t31 -15.5t19 -25.5zM133 800q0 -51 -14.5 -148t-32.5 -97q-10 0 -21 12.5t-11 20t9 89.5t9 146q0 18 11.5 18t30.5 -15.5t19 -25.5z" />
<glyph unicode="&#x26;" horiz-adv-x="639" d="M558 88q47 0 65.5 -5t17.5 -17q0 -45 -93 -45t-189 88q-159 -99 -236 -99q-38 0 -72.5 35.5t-34.5 69.5t44 77.5t89 79.5t47 38q4 4 16 13q-75 194 22 293q52 55 135 55q64 0 91 -38t26 -83q-2 -90 -184 -246q27 -58 63 -102q44 29 107 74q127 92 138 92q28 0 28 -28 q0 -18 -65.5 -75.5t-154.5 -117.5q70 -59 140 -59zM390 584q-13 16 -45 16t-57 -34.5t-27 -85t14 -104.5q126 109 128 168q0 24 -13 40zM100 109q0 -11 7.5 -18t19.5 -7q52 0 180 80q-33 40 -62 92q-110 -92 -127.5 -114t-17.5 -33z" />
<glyph unicode="'" horiz-adv-x="301" d="M231 800q0 -44 -19.5 -146.5t-36.5 -98.5q-10 0 -21.5 12.5t-11.5 20.5t11.5 90t11.5 145q0 18 12 18t33 -16t21 -25z" />
<glyph unicode="(" horiz-adv-x="486" d="M185.5 404.5q-21.5 -68.5 -21.5 -132.5t15.5 -108.5t40 -74t54 -53.5t59.5 -40t54.5 -28.5t40 -23.5t15.5 -22q0 -21 -32.5 -21t-75.5 14t-88 45t-82 73t-60.5 104.5t-23.5 150t37 186t91.5 168t115 124t108 81t66.5 26.5t35 -15.5t16 -28.5t-21.5 -31t-55.5 -43 t-75 -57.5t-82 -77t-75 -96t-55.5 -120z" />
<glyph unicode=")" horiz-adv-x="501" d="M61 -56.5q-47 -28.5 -64.5 -28.5t-22 4t-4.5 14.5t37.5 44t91 85.5t107.5 118.5t91.5 160.5t37.5 193q0 59 -17 104.5t-41.5 70t-48.5 42t-41 32t-17 33t16 30t40 11.5q66 0 132 -86.5t65 -202.5t-40 -223t-95.5 -182.5t-118 -133.5t-108.5 -86.5z" />
<glyph unicode="*" horiz-adv-x="355" d="M260 695q65 76 76 76t23.5 -10.5t12.5 -21.5q0 -6 -35.5 -27.5t-65.5 -34.5q45 15 90 15t45 -13q0 -18 -38 -27t-94 1q6 -7 27 -23q54 -43 54 -55q0 -7 -8 -12.5t-16 -5.5q-29 0 -73 69q-15 -96 -26.5 -96t-23.5 11.5t-12 20t13.5 37t14.5 33.5q-13 -19 -41 -49.5 t-37.5 -30.5t-19 9.5t-9.5 16t15.5 18t40 28t35.5 25.5q-63 -19 -78.5 -19t-27 13t-11.5 26t16 13q1 0 38 -3.5t61 -3.5q-29 16 -59 45.5t-30 38.5t1.5 12t16 3t38 -8t23.5 -18q0 -6 11 -23t23 -29l-7 81q0 14 12 14t30.5 -14t18.5 -23t-24 -59z" />
<glyph unicode="+" horiz-adv-x="600" d="M603 361q0 -42 -253 -67q-6 -30 -19.5 -98t-21.5 -97.5t-19 -28.5q-15 0 -29.5 19.5t-13.5 39t4.5 39t10 53.5t11.5 67q-86 -6 -158 -6q-23 0 -41.5 19t-18.5 38.5t27 19.5q152 0 201 3q13 103 19 183q1 29 20 29q17 -1 44 -27.5t26 -42.5q-2 -34 -26 -135q154 13 174 13 q63 0 63 -21z" />
<glyph unicode="," horiz-adv-x="224" d="M7 -171q-22 0 -22 14q0 8 16.5 23.5t35.5 32t35.5 45t16.5 51t-9.5 32t-20.5 13.5q-30 11 -30 30q0 16 17.5 33t34.5 17q35 0 61 -27.5t26 -65.5q0 -69 -59 -133.5t-102 -64.5z" />
<glyph unicode="-" horiz-adv-x="451" d="M125.5 247.5q-17.5 -3.5 -30 -3.5t-27 15.5t-14.5 29.5q0 21 112 41.5t180 20.5t68 -24q0 -16 -32 -25t-98 -22t-103.5 -21t-55 -11.5z" />
<glyph unicode="." horiz-adv-x="237" d="M89 25q-31 31 -31 52.5t16.5 42t34.5 20.5t42 -48t24 -73q0 -7 -10.5 -16t-19.5 -9q-25 0 -56 31z" />
<glyph unicode="/" horiz-adv-x="362" d="M61 -76q-11 0 -27.5 19.5t-16.5 32.5q0 55 319 784q1 3 2.5 6.5t2 5.5t1.5 4.5t2 3.5l2 4l2 2l2 2q5 1 8 1q11 0 32 -28.5t21 -49.5t-27 -82.5t-76 -164t-113.5 -256.5t-93.5 -219t-40 -65z" />
<glyph unicode="0" horiz-adv-x="449" d="M172.5 165q14.5 -27 41 -27t55 36.5t49.5 98.5t21 122q0 159 -36 159q-25 0 -59 -49t-60 -126.5t-26 -132t14.5 -81.5zM211 59q-48 0 -92 46.5t-44 105.5q0 104 35 203t89.5 159t108.5 60t82 -63.5t28 -180.5t-63 -223.5t-144 -106.5z" />
<glyph unicode="1" horiz-adv-x="302" d="M183 669q21 0 49.5 -26t28.5 -44q-3 -102 -36 -277q-10 -48 -15.5 -86t-10.5 -65.5t-9 -45t-8.5 -38.5t-8.5 -33.5t-9 -23.5q-17 -41 -48 -2q-15 19 -14.5 41t14.5 97q40 216 47 474q1 29 20 29z" />
<glyph unicode="2" horiz-adv-x="583" d="M252 512.5q-12 -11.5 -22 -11.5t-33 15t-23 29q0 35 57.5 76.5t123.5 41.5t109 -46t43 -115q0 -198 -330 -410q255 39 280.5 39t40 -4.5t14.5 -19.5q0 -29 -136 -60.5t-204 -31.5q-29 0 -60 25t-30 53q0 15 34.5 45.5t84 69t99 83t84 99.5t34.5 98t-17 64.5t-42.5 21.5 t-47 -11.5t-34.5 -25t-25 -25z" />
<glyph unicode="3" horiz-adv-x="517" d="M434.5 302.5q48.5 -31.5 48.5 -81t-57 -98t-138.5 -75.5t-166.5 -27t-85 32q0 10 54.5 24t119.5 28.5t119.5 47t54.5 74.5q0 23 -34 37t-76 19q-109 13 -109 40q0 22 42 47.5t85 48t78.5 56.5t35.5 69q0 40 -43 40t-95.5 -30.5t-65.5 -30.5t-31.5 18.5t-18.5 31.5 q0 29 71 59.5t130 30.5t99 -40t40 -89t-56 -99.5t-130 -88.5q80 -12 128.5 -43.5z" />
<glyph unicode="4" horiz-adv-x="576" d="M459 432q15 0 40.5 -25t25.5 -45q0 -89 -53.5 -268t-87.5 -179q-14 0 -24.5 15t-10.5 31t9 45.5t24.5 78.5t25.5 93q-86 -36 -153 -36t-105 34t-38 90t54 150.5t114.5 165t78 70.5t34 -16.5t16.5 -31t-52 -79t-104 -140t-52 -115.5q0 -48 48 -48q45 0 105 24t72 28 q9 60 9 128q0 30 24 30z" />
<glyph unicode="5" horiz-adv-x="566" d="M602 597q0 -25 -164 -47q-70 -10 -78 -12q-16 -4 -41.5 -44.5t-25.5 -59.5t25.5 -45.5t55.5 -49t55.5 -59.5t25.5 -78q0 -72 -58.5 -119.5t-147.5 -47.5q-64 0 -112 29.5t-48 61.5t10 32q4 0 18.5 -12t43 -24.5t73 -12.5t87 29t42.5 60.5t-26 62.5t-57.5 55t-57.5 60 t-26 73.5t42.5 98t71.5 67.5q56 14 150 14q142 0 142 -32z" />
<glyph unicode="6" horiz-adv-x="542" d="M475 251q0 -75 -87 -144t-180 -69q-58 0 -95.5 40.5t-37.5 104.5t42.5 149t97.5 153.5t106.5 117.5t69 49t38 -12t20.5 -22t-28.5 -41t-78 -84.5t-83.5 -99.5q99 -10 157.5 -51t58.5 -91zM217 118q54 0 111 42t57 79.5t-44 64t-119 36.5q-59 -91 -59 -160 q0 -31 15.5 -46.5t38.5 -15.5z" />
<glyph unicode="7" horiz-adv-x="468" d="M179 24q-12 -14 -22.5 -14t-23 16.5t-13.5 35.5q-3 32 107.5 236.5t110.5 226.5q0 13 -32 13t-97 -11t-84.5 -11t-44 30t-24.5 47q0 11 80 22.5t159 11.5t97.5 -13t32 -44t10.5 -52q-11 -39 -36.5 -88t-33 -63.5t-25.5 -48.5t-27.5 -52.5t-34 -66.5t-38.5 -74 t-31.5 -56.5t-29.5 -44.5z" />
<glyph unicode="8" horiz-adv-x="624" d="M563.5 638q39.5 -30 39.5 -77.5t-49 -100.5t-137 -121q85 -78 85 -134q0 -68 -84 -124t-165 -56q-44 0 -88 33t-44 75.5t45 93t127 117.5q-8 6 -26.5 20.5t-27.5 21.5t-25.5 20t-25.5 21t-21.5 19t-19 19t-13.5 17q-13 18 -13 33.5t5.5 30.5t13.5 15q9 0 41 -32 q37 -33 95 -77t78 -60q81 63 122 102.5t41 67.5t-45.5 28t-106 -21.5t-73.5 -21.5t-35.5 15.5t-22.5 30.5q0 28 72 51.5t145 23.5t112.5 -30zM413 218q0 25 -56 74q-75 -58 -113 -94.5t-38 -62.5q0 -16 13 -27.5t33 -11.5q52 0 106.5 37.5t54.5 84.5z" />
<glyph unicode="9" horiz-adv-x="518" d="M329 305q-65 -50 -116 -50t-93 41t-42 91t37 119t96 118t113 49t83.5 -34.5t29.5 -79.5q0 -27 -8 -54q47 -11 19 -91q-10 -27 -24.5 -64t-23 -62.5t-17.5 -59.5t-15.5 -61.5t-13 -55.5t-11.5 -48.5t-9 -36.5q-10 -34 -21 -34q-16 1 -23.5 28.5t-3.5 87.5t43 197z M173.5 337.5q14.5 -12.5 32 -12.5t31 4.5t24 9t23.5 16.5t20 18.5t20 22.5t17 21.5t17 24t15 20.5q-18 4 -18 18q0 9 4.5 30.5t4.5 37.5q0 45 -35 45q-51 0 -110.5 -82t-59.5 -138q0 -23 14.5 -35.5z" />
<glyph unicode=":" horiz-adv-x="246" d="M148.5 380.5q-30.5 38.5 -30.5 61t14 45t28 22.5q22 0 45 -54.5t23 -85.5q0 -10 -7.5 -18.5t-18.5 -8.5q-23 0 -53.5 38.5zM68.5 31.5q-30.5 38.5 -30.5 61t14 45t28 22.5q23 0 46 -54.5t23 -85.5q0 -10 -8 -18.5t-19 -8.5q-23 0 -53.5 38.5z" />
<glyph unicode=";" horiz-adv-x="306" d="M3 -192q-22 0 -22 14q0 8 16.5 23.5t35.5 32t35.5 45t16.5 51t-9.5 32t-20.5 13.5q-30 11 -30 30q0 16 17.5 33t34.5 17q35 0 61 -27.5t26 -65.5q0 -69 -59 -133.5t-102 -64.5zM158.5 380.5q-30.5 38.5 -30.5 61t14 45t28 22.5q23 0 46 -54.5t23 -85.5q0 -10 -8 -18.5 t-19 -8.5q-23 0 -53.5 38.5z" />
<glyph unicode="?" horiz-adv-x="513" d="M161 27q-30 30 -30 51t15.5 40.5t32.5 19.5t40.5 -47.5t23.5 -71.5q0 -6 -9.5 -14t-18.5 -8q-24 0 -54 30zM248 636l4 -29q0 -5 -6.5 -13t-27.5 -8q-11 0 -28.5 22.5t-17.5 38.5q0 55 48.5 97.5t113 42.5t109.5 -41.5t45 -110.5q0 -40 -27.5 -85t-62.5 -80 q-100 -100 -124.5 -159t-32 -66t-14.5 -7q-25 0 -25 60q0 63 72 140l60 64q73 74 73 130q0 33 -23.5 53.5t-55.5 20.5t-56 -20t-24 -50z" />
<glyph unicode="@" horiz-adv-x="1323" d="M1105 382q0 -81 -42.5 -161t-106.5 -129t-124 -49q-37 0 -59.5 25.5t-26.5 64.5q-92 -101 -175 -101q-47 0 -87 38t-40 89t40 132.5t110 147.5t141 66q51 0 95 -54t44 -97.5t-15 -73.5q2 -6 0 -11q-22 -39 -28.5 -74t0.5 -53.5t21 -18.5q50 0 108 79t58 184t-52.5 171 t-156 66t-197.5 -48t-160.5 -122t-107.5 -165t-41 -181.5t59.5 -147t167.5 -56.5q79 0 123.5 11.5t68.5 19.5t39.5 13.5t27.5 8.5q22 6 22 -13q0 -30 -46 -58.5t-111 -45t-123 -16.5q-131 0 -226.5 84.5t-95.5 203.5q0 96 46 201t123 193t189.5 145t233.5 57 q142 0 223 -91.5t81 -233.5zM571 108q55 0 123.5 66.5t93.5 139.5q6 19 17 22q-9 42 -24.5 66t-45.5 24q-45 0 -96.5 -53t-83 -116.5t-31.5 -95t11 -42.5t36 -11z" />
<glyph unicode="A" horiz-adv-x="590" d="M555 334q0 -16 -82 -39q10 -105 8 -156q-2 -125 -32 -125q-19 0 -27 21q-14 39 -16.5 71.5t-4.5 57.5t-4.5 61.5t-3.5 48.5q-88 -22 -126 -32.5t-49 -13.5q-45 -114 -68 -164t-37.5 -50t-32.5 17.5t-18 36.5q0 8 57 136q-20 0 -34.5 11t-14.5 29t86 47q13 29 26.5 63 t54 125.5t50 119t36 45t53.5 17.5q30 0 53.5 -89t37.5 -217q24 2 33 2q55 0 55 -23zM253 318q60 15 133 27q-12 113 -33 215q-48 -106 -100 -242z" />
<glyph unicode="B" horiz-adv-x="585" d="M177 553q-17 0 -35.5 22.5t-18.5 35.5q0 16 41 28t98 12q130 0 200 -36t70 -101q0 -53 -45 -96.5t-130 -71.5q82 -8 130.5 -42t48.5 -74q0 -55 -57 -105.5t-148.5 -81t-187.5 -30.5q-58 0 -99.5 30t-41.5 57.5t19 27.5q5 0 36 -20t69 -21q-36 23 -37 55q0 14 23 86 q69 217 71 325h-6zM412.5 553q-30.5 16 -74 16t-93.5 -9q20 -24 20 -47t-31 -144q18 9 56 24q90 31 121.5 55.5t31.5 56.5t-30.5 48zM450 234q0 26 -62 44.5t-127 18.5q-20 0 -41 19q-5 -20 -16 -59t-27.5 -99t-23.5 -70q104 6 200.5 51t96.5 95z" />
<glyph unicode="C" horiz-adv-x="572" d="M502 623.5q27 -30.5 27 -51.5t-14 -21q-7 0 -25.5 7t-36.5 7q-35 0 -86.5 -35.5t-98 -88t-79.5 -121.5t-33 -128q0 -38 26.5 -62.5t76 -24.5t105 19t91 38t45.5 19q17 0 17 -21.5t-43 -55.5t-107.5 -61t-116.5 -27q-67 0 -127.5 57t-60.5 121q0 86 58.5 194t150.5 187 t177 79q27 0 54 -30.5z" />
<glyph unicode="D" horiz-adv-x="605" d="M133 654q63 0 136.5 -26t136 -69t104.5 -106t42 -129q0 -43 -47 -98.5t-113 -101t-140 -77t-124 -31.5q-19 0 -41.5 29.5t-22.5 60t52 212.5t56 250q-27 12 -44 31t-17 34q0 21 22 21zM464 331q0 58 -67 125t-151 93q4 -20 4 -30q0 -37 -67 -271q-1 -4 -3 -10 q-20 -56 -29 -133q63 10 138.5 54t125 93.5t49.5 78.5z" />
<glyph unicode="E" horiz-adv-x="552" d="M242 373l176 9q38 0 38 -16q0 -65 -257 -65q-52 -162 -52 -187q0 -20 23 -20q110 0 240 33q44 11 51 11q17 0 17 -22q0 -36 -104 -69.5t-203 -33.5q-44 0 -78 25t-34 62.5t28 127.5t56 191.5t28 170.5q0 16 6 25q19 34 208.5 34t189.5 -30q0 -20 -41 -27 q-32 -6 -89.5 -10t-75.5 -6t-114 -16v-2q0 -66 -35 -185h22z" />
<glyph unicode="F" horiz-adv-x="493" d="M215 360l168 9q38 0 38 -17q0 -27 -79 -45.5t-178 -18.5q-62 -248 -75 -267q-4 -5 -7 -5q-14 0 -34 26t-18 45.5t55 224.5t55 278q0 10 3 18q5 21 51 31t157 10q180 0 180 -34q0 -21 -81 -30q-19 -2 -59 -5t-104 -10t-70 -7v-6q0 -46 -35 -197h33z" />
<glyph unicode="G" horiz-adv-x="562" d="M421 324q34 0 56 -27.5t22 -65t-48 -175t-73 -137.5q-14 0 -22 8.5t-8 22.5t11 47.5t31 91.5t34 106q-47 -82 -104.5 -130.5t-114.5 -48.5t-111.5 50.5t-54.5 110.5q0 93 57.5 205t148 192t174.5 80q28 0 54.5 -31.5t26.5 -52t-15 -20.5q-7 0 -24 7.5t-34 7.5 q-54 0 -124 -60t-121.5 -151.5t-51.5 -170.5q0 -37 22 -60t58 -23t92.5 46t105.5 116q-51 -14 -72 -14t-41.5 14.5t-20.5 27.5q0 34 147 34z" />
<glyph unicode="H" horiz-adv-x="618" d="M105 16q-13 0 -32.5 22.5t-19.5 45t42 179.5q-13 5 -22 16.5t-9 25.5q0 11 49 26q62 232 62 292q0 16 4.5 23t18.5 7t35 -28t21 -60t-47 -212q130 24 240 31q48 181 48 239q0 16 4.5 23t18.5 7t35 -27.5t21 -59t-41 -184.5q41 -7 41 -25.5t-56 -29.5q-17 -63 -23.5 -85.5 t-17 -61.5t-17.5 -64.5t-14 -49.5q-14 -50 -23 -50q-15 0 -33 19.5t-18 42t57 236.5q-103 -12 -244 -41q-49 -180 -57 -206q-14 -51 -23 -51z" />
<glyph unicode="I" horiz-adv-x="281" d="M162 623q0 17 4 23.5t18 6.5t36.5 -28t22.5 -55q0 -49 -64 -305q-7 -28 -17.5 -71t-17 -69.5t-14.5 -54.5q-16 -54 -26 -54q-14 0 -32.5 20.5t-18.5 39.5t54.5 254.5t54.5 292.5z" />
<glyph unicode="J" horiz-adv-x="452" d="M29 179q9 0 31 -23q68 -67 120 -67q27 0 55 66t74.5 228.5t75.5 211.5q-41 -6 -113.5 -24t-88.5 -18q-37 0 -37 24q0 31 116 63t170 32q18 0 31.5 -8t13.5 -22t-11 -49t-32 -91q-27 -76 -76.5 -231.5t-78.5 -205t-89.5 -49.5t-120.5 50.5t-60 81.5t20 31z" />
<glyph unicode="K" horiz-adv-x="547" d="M529.5 636.5q16.5 -11.5 16.5 -24t-51.5 -60t-126 -118t-113.5 -126.5q0 -37 20 -81q33 -73 135 -121q44 -21 69.5 -35.5t25.5 -30.5q0 -24 -41 -24q-73 0 -160.5 62.5t-112.5 164.5q-22 -38 -72 -183q-13 -44 -22 -44q-14 0 -33.5 22.5t-19.5 44.5t61 252t61 288 q0 16 4.5 23t18.5 7t35 -27.5t21 -63.5t-49 -217q85 115 176.5 209t120.5 94q20 0 36.5 -11.5z" />
<glyph unicode="L" horiz-adv-x="496" d="M262 587q0 -68 -80 -321q-40 -133 -40 -152.5t23 -19.5q114 0 230 30q40 11 47 11q17 0 17 -17q0 -37 -97.5 -71t-195.5 -34q-44 0 -78.5 25t-34.5 61t64 251.5t64 277.5q0 16 4.5 23t19 7t36 -23t21.5 -48z" />
<glyph unicode="M" horiz-adv-x="733" d="M650 627q20 17 34 17t32.5 -18.5t18.5 -34.5t-3.5 -36.5t-12.5 -54t-16.5 -59.5t-22.5 -77.5t-25.5 -89t-29 -116t-29 -110.5t-20.5 -32q-14 0 -27 21.5t-13 59t31.5 173.5t67.5 226q-25 -31 -53.5 -65.5t-46.5 -56.5t-38 -46.5t-33 -39t-26.5 -30t-22.5 -23.5t-19 -15 q-15 -13 -29.5 -13t-32 10t-27.5 24q-23 36 -85 181q-24 -88 -40 -144.5t-27.5 -97.5t-18.5 -65t-16 -49q-16 -50 -25 -50q-12 0 -29.5 22.5t-17.5 44.5t61 252t61 288q0 16 4.5 23t17 7t41.5 -24t31 -44q9 -74 110 -286q53 63 124 151.5t101.5 124t50.5 52.5z" />
<glyph unicode="N" horiz-adv-x="637" d="M442 16q-13 0 -30 13.5t-26.5 32.5t-40 91t-68 161t-53.5 126q-26 -97 -60.5 -228t-45 -163.5t-23 -32.5t-31 22.5t-18.5 44.5t61 252t61 288q0 16 4.5 23t16.5 7t31 -17.5t25.5 -33.5t42.5 -102q89 -217 148 -347q31 85 49.5 170.5t22.5 139.5q11 144 17.5 168t24.5 24 t39 -23.5t21 -43.5q1 -78 -22.5 -212t-64.5 -247t-81 -113z" />
<glyph unicode="O" horiz-adv-x="563" d="M425 530.5q-25 41.5 -56 41.5t-70.5 -34t-75.5 -85t-62 -119.5t-26 -125t20 -86.5t50 -30q45 0 103 53.5t100 130.5t42 145t-25 109.5zM51 193q0 85 30 170.5t75.5 148.5t101 102.5t103.5 39.5q75 0 125.5 -69t50.5 -156.5t-46 -182.5t-126 -162.5t-166 -67.5 q-60 0 -104 58t-44 119z" />
<glyph unicode="P" horiz-adv-x="499" d="M502 501q0 -98 -94 -167t-248 -99q-7 -23 -18.5 -64t-17.5 -62t-14 -46q-15 -46 -23 -46q-14 0 -31.5 20t-17.5 40.5t51.5 205t57.5 272.5q-22 24 -22 42q0 23 62 43.5t118 20.5q89 0 143 -43t54 -117zM420 490q0 41 -30 64.5t-72 23.5t-97 -22q6 -14 6 -27 q0 -58 -45 -218q108 28 173 77t65 102z" />
<glyph unicode="Q" horiz-adv-x="618" d="M495.5 584q58.5 -70 58.5 -158t-45.5 -183.5t-118.5 -157.5q12 -34 31 -81q37 -92 37 -108q0 -22 -24 -22q-42 0 -107 170q-54 -28 -116 -28t-111 55t-49 122q0 113 47.5 221.5t120 174t145.5 65.5t131.5 -70zM437.5 290.5q29.5 67.5 29.5 131t-33 107t-69 43.5 q-15 0 -36 -8q-16 -29 -16 -87q0 -150 48 -305q47 51 76.5 118.5zM222 92q37 0 78 27q-65 197 -65 316q0 32 4 53q-45 -59 -74.5 -136.5t-29.5 -138.5t25 -91t62 -30z" />
<glyph unicode="R" horiz-adv-x="523" d="M87 17q-14 0 -31.5 20t-17.5 40.5t50.5 200t57.5 267.5q-12 9 -22.5 25.5t-10.5 26.5q0 21 63 43.5t119 22.5q95 0 150.5 -35t55.5 -102q0 -44 -25.5 -83t-61.5 -64t-72.5 -43.5t-62 -30.5t-25.5 -18q0 -32 122 -138q12 -11 31 -26.5t31 -26t24 -21.5q25 -22 25 -35 q0 -23 -31 -23q-50 0 -152.5 92.5t-132.5 160.5q-27 -90 -39 -134.5t-20 -69.5q-16 -49 -25 -49zM227 529q0 -52 -39 -197q13 9 82 44t108.5 71t39.5 80q0 51 -98 51q-42 0 -99 -21q6 -13 6 -28z" />
<glyph unicode="S" horiz-adv-x="490" d="M371 66.5q-68 -50.5 -156.5 -50.5t-144 45.5t-55.5 85.5q0 28 19 28q16 0 58 -42q16 -16 42.5 -29t55.5 -13q66 0 114 32t48 71q0 44 -104 135q-38 34 -70.5 73.5t-32.5 62.5t9 48t20 36q37 39 110 72t125 33q27 0 46 -17.5t19 -36.5q0 -10 -19.5 -15t-58.5 -13.5 t-69 -20.5q-101 -42 -101 -78q0 -12 33.5 -44.5t73 -68t73 -83t33.5 -85.5q0 -75 -68 -125.5z" />
<glyph unicode="T" horiz-adv-x="459" d="M232 570l-160 -7q-15 0 -32.5 21.5t-17.5 39t59.5 21.5t252.5 4q82 0 140.5 -22t58.5 -45q0 -19 -63 -18q-126 6 -159 7q2 -10 2 -15q0 -53 -87 -376q-11 -43 -17 -65.5t-13 -48.5q-15 -49 -25 -49q-13 0 -30.5 20t-17.5 41.5t50 215t59 276.5z" />
<glyph unicode="U" horiz-adv-x="543" d="M194 628q24 -26 24 -58.5t-38.5 -168.5t-38.5 -188t17 -82.5t48 -30.5q41 0 88 56t81.5 153.5t34.5 199.5q0 51 -4 83.5t-4 39.5q0 22 20 22t50 -29.5t31 -64.5q3 -140 -39 -266.5t-114 -202.5t-152 -76q-60 0 -102.5 55.5t-42.5 126.5t39.5 221t39.5 206q0 30 21 30 q17 0 41 -26z" />
<glyph unicode="V" horiz-adv-x="484" d="M498 653q14 0 29.5 -10.5t15.5 -26t-17.5 -48t-60 -103.5t-72.5 -130.5t-57 -116.5t-42 -89t-30 -61q-29 -55 -50 -55q-13 0 -29 18.5t-26 41.5q-24 58 -67.5 278.5t-43.5 271.5q0 30 18 30q20 0 41 -19.5t32 -49.5q5 -17 28.5 -169.5t51.5 -251.5q53 136 151 313 t128 177z" />
<glyph unicode="W" horiz-adv-x="773" d="M471 654q77 0 134.5 -44.5t85 -113.5t27.5 -150q0 -129 -66.5 -229.5t-159.5 -100.5q-67 0 -108 64t-56 171q-137 -171 -171 -204.5t-51 -30.5t-34 27.5t-16 48.5q3 56 25.5 236t23.5 288q0 37 22.5 37t50.5 -24t26.5 -46t-29 -179.5t-37.5 -258.5q56 83 120.5 147.5 t94.5 64.5q33 0 54 -129q8 -48 30 -88t56 -40q53 0 93 82t40 169.5t-38 151.5t-93 65q-28 1 -49.5 20.5t-21.5 37.5q0 28 47 28z" />
<glyph unicode="X" horiz-adv-x="586" d="M520 654q13 0 36 -20.5t23 -30.5t-6 -16t-19 -14t-20 -14.5t-13 -13t-14 -16.5t-15.5 -18.5t-19 -24t-20 -27t-24 -32.5t-25.5 -35q-50 -67 -62 -83q26 -38 78.5 -110t75 -106.5t22.5 -48t-8 -21.5t-19 -8q-24 0 -80.5 63t-121.5 159q-109 -152 -141.5 -186.5 t-57.5 -34.5q-15 0 -34.5 13.5t-19.5 20.5t2 11t3.5 6t17.5 18q47 47 179 230q-139 223 -139 313q0 26 18 26q28 0 55 -14t27 -32q0 -78 91 -221q108 158 156 212.5t75 54.5z" />
<glyph unicode="Y" horiz-adv-x="528" d="M289 348q15 0 56.5 76.5t87 153t71.5 76.5q21 0 35.5 -15.5t14.5 -36.5t-33.5 -77t-93.5 -148.5t-95 -154.5q-82 -153 -104 -179.5t-37 -26.5q-24 0 -24 39t91 211q-78 23 -131.5 111t-65.5 203q-5 74 40 74q17 0 27 -28t24 -81t35 -97t51 -72t51 -28z" />
<glyph unicode="Z" horiz-adv-x="541" d="M152 120q0 -14 19 -14q49 0 158 15t144 15t35 -29q0 -34 -115.5 -63t-241.5 -29q-40 0 -73 31t-34.5 63.5t39.5 80t100 95.5t118 95q142 111 140 149q-1 11 -46 19.5t-85 7.5t-79.5 -7t-60 -6.5t-42 22t-22.5 42.5q0 17 39.5 29t126.5 12t165 -27q42 -14 68.5 -44 t27.5 -56q1 -39 -58.5 -104.5t-131.5 -122.5t-131.5 -108.5t-59.5 -65.5z" />
<glyph unicode="[" horiz-adv-x="452" d="M350 708q0 -69 -120 -444q-65 -207 -65 -229q0 -20 25.5 -20t81.5 6.5t65 6.5q18 0 18 -17q0 -26 -61 -50t-105.5 -24t-78.5 23t-34 58.5t96.5 347t96.5 383.5q0 5 2 13q6 44 179 37q96 -2 94 -32q0 -12 -9.5 -16.5t-17 -7t-21.5 -4.5t-26 -3q-51 -4 -121 -17q1 -4 1 -11 z" />
<glyph unicode="]" horiz-adv-x="441" d="M400 711v-6q0 -87 -45 -308t-87 -395q-10 -41 -35 -58.5t-76.5 -17.5t-108 23.5t-56.5 49.5q0 18 19 18t65.5 -6.5t73 -6.5t30.5 23q28 111 78.5 339.5t50.5 297.5q0 5 2 11q-22 2 -37.5 2t-42 -0.5t-41 0t-31.5 1.5q-32 3 -32 22q0 45 136 51.5t137 -40.5z" />
<glyph unicode="a" horiz-adv-x="518" d="M479 380q0 -30 -24 -70q11 -15 11 -27.5t-14 -61.5t-19 -76t-6.5 -47t-3 -33t-3.5 -25q-4 -24 -21 -24q-36 0 -41 116q-42 -51 -92.5 -83.5t-94.5 -32.5t-84 38.5t-40 81.5q0 61 46 149t118.5 156t135.5 68q48 0 90 -41.5t42 -87.5zM409 339q0 41 -14 66.5t-39 25.5 q-42 0 -98 -56t-95 -126.5t-39 -113.5q0 -19 12 -30t31 -12q55 -2 124 60.5t101 160.5q5 15 17 19v6z" />
<glyph unicode="b" horiz-adv-x="519" d="M413 512q47 0 79 -45.5t32 -108t-36.5 -144t-98.5 -141t-130.5 -59.5t-134.5 72q-20 -70 -32.5 -70t-30 19.5t-17.5 38t31.5 128.5t63 266.5t31.5 290.5q0 17 4 23.5t18 6.5t35 -27.5t21 -55.5q0 -135 -54 -359q120 165 219 165zM252 87q66 0 129.5 89t63.5 189 q0 66 -39 66q-59 0 -131.5 -82.5t-123.5 -195.5q46 -66 101 -66z" />
<glyph unicode="c" horiz-adv-x="455" d="M328 509q42 0 72 -35.5t30 -58.5t-16 -23q-11 0 -35.5 19t-44.5 19q-55 0 -128 -97t-73 -169q0 -32 20.5 -51.5t58 -19.5t69.5 6.5t48 14.5q40 22 57.5 22t17.5 -18q0 -27 -69.5 -64.5t-127 -37.5t-107.5 44t-50 107.5t41.5 144.5t108 139t128.5 58z" />
<glyph unicode="d" horiz-adv-x="508" d="M470.5 782q4.5 7 18.5 7t35 -28t21 -54t-24.5 -147.5t-58.5 -258.5q-71 -285 -92 -285q-14 0 -29 16t-15 33t9 55q-99 -104 -176 -104q-45 0 -79.5 39t-34.5 81q0 62 34 148t97.5 155.5t134.5 69.5t99 -88q50 213 56 338q0 16 4.5 23zM378 298q0 56 -18 94.5t-46 38.5 q-43 0 -89.5 -52.5t-74.5 -122.5t-28 -123q0 -19 14.5 -31t33.5 -12q39 0 107 57.5t98 133.5l3 12v5z" />
<glyph unicode="e" horiz-adv-x="454" d="M384 259q-57 -33 -127 -33t-136 17q-14 -44 -14 -80.5t23 -56.5t71.5 -20t100.5 18t58 18q25 0 25 -19q0 -26 -60.5 -56.5t-117.5 -30.5q-76 0 -125 46t-49 116.5t37.5 148t97.5 130t118.5 52.5t106.5 -55.5t48 -108.5t-57 -86zM292 435q-39 0 -80 -40t-69 -99 q44 -9 97 -9t90 16.5t37 44.5t-25 57.5t-50 29.5z" />
<glyph unicode="f" horiz-adv-x="374" d="M139 43.5q-14 -30.5 -25.5 -30.5t-26.5 19t-12 36q75 285 80 306q-49 -9 -62 -9t-28 13t-15 29.5t41.5 27t81.5 18.5q3 15 8.5 44t8.5 42q25 132 63 188t106 56q50 0 81 -39t31 -89.5t-25 -50.5q-24 0 -37 53q-5 20 -17.5 36.5t-30 16.5t-30.5 -12.5t-25 -43.5 q-19 -52 -29 -93l-23 -96q38 5 72 5q66 0 66 -27q0 -17 -30 -26q-51 -15 -126 -26q-46 -185 -64.5 -251t-32.5 -96.5z" />
<glyph unicode="g" horiz-adv-x="471" d="M150 -245q-71 0 -119.5 37.5t-48.5 75.5q0 14 9 29.5t19 15.5t23 -15t24.5 -32.5t35.5 -32.5t46.5 -15t34 6.5t21.5 21.5t17.5 30.5t15.5 41.5t14 46.5t15 55t15 56.5q-80 -60 -129.5 -60t-85.5 38t-36 82q0 62 40.5 149.5t107 155.5t129.5 68q62 0 88 -56 q21 -45 25 -107q1 -12 -1 -28q14 -19 11 -43q-7 -34 -31 -74q-26 -58 -52.5 -150t-42.5 -149.5t-53 -102t-92 -44.5zM302 431q-40 0 -89.5 -56t-82.5 -126.5t-33 -113.5q0 -19 13 -30q46 -41 147 49q71 62 101 141q-5 12 -8 39.5t-6.5 46t-14.5 34.5t-27 16z" />
<glyph unicode="h" horiz-adv-x="537" d="M168 789q17 0 37 -28.5t20 -55.5q0 -68 -31.5 -226.5t-84.5 -316.5q104 187 170.5 267t114.5 80q26 0 59.5 -43.5t33.5 -82.5q0 -57 -25 -145q-63 -222 -115 -222q-21 0 -21 23t8.5 52.5t24.5 76.5q47 140 47 191q0 19 -9.5 32t-23 13t-31.5 -13t-45 -49 q-37 -48 -69.5 -97.5t-34.5 -52.5q-7 -12 -14.5 -23.5t-26 -41.5t-28.5 -45.5t-22 -33.5q-22 -32 -34.5 -32t-31 22t-16.5 39q63 258 75 317q49 239 49 357q0 38 24 38z" />
<glyph unicode="i" horiz-adv-x="260" d="M276 602q0 -9 -8.5 -16.5t-17.5 -7.5q-23 0 -51.5 28t-28.5 47.5t15 36.5t31 17t38 -39.5t22 -65.5zM163 509q17 0 32.5 -20.5t15.5 -40.5q0 -60 -102 -381q-17 -51 -44 -51q-13 0 -22.5 14.5t-6.5 32.5q7 31 26 102t46 185t32 128q10 31 23 31z" />
<glyph unicode="j" horiz-adv-x="246" d="M200.5 490q16.5 -20 16.5 -35.5t-4 -37t-16 -70t-25 -98t-38.5 -149.5t-48.5 -190q-40 -154 -150 -154q-49 0 -96 42t-47 71q0 13 9 29t18 16q12 0 41 -37q44 -56 79 -56q32 0 57 62q25 64 43.5 146.5t31.5 140.5q36 159 71 293q14 46 28 46.5t30.5 -19.5zM266.5 667.5 q21.5 -39.5 21.5 -57t-8 -25t-17 -7.5q-23 0 -51.5 28t-28.5 47t14.5 36.5t31 17.5t38 -39.5z" />
<glyph unicode="k" horiz-adv-x="495" d="M328 408q84 101 103.5 101t36 -19t12.5 -35q-14 -17 -70.5 -77.5t-80.5 -98.5t-24 -73.5t21.5 -66t47.5 -46t47.5 -30t21.5 -24.5q0 -23 -35 -23q-49 0 -107.5 51.5t-64.5 110.5q-70 -94 -100 -128t-44.5 -34t-31 23t-14.5 41q129 491 129 681q0 16 4.5 22t18.5 6 t34 -27.5t20 -55.5q0 -93 -36 -254t-87 -310q115 165 199 266z" />
<glyph unicode="l" horiz-adv-x="234" d="M75 16q-14 0 -31.5 21t-15.5 38q41 178 61 270.5t37.5 210.5t17.5 201q0 18 3.5 25t16 7t36 -27t23.5 -52q0 -185 -83 -508q-44 -164 -59 -182q-3 -4 -6 -4z" />
<glyph unicode="m" horiz-adv-x="830" d="M675 509q30 0 53.5 -40t23.5 -95q0 -88 -43 -223t-85 -135q-21 0 -21 25.5t18 76.5q54 153 54 239q0 60 -21 60q-30 0 -87 -84q-21 -32 -100 -160q-7 -11 -30 -57t-40 -73t-28.5 -27t-25.5 15t-14 28.5t19 58.5q55 137 55 248q0 21 -10 36t-19.5 15t-18.5 -4.5t-19 -16 t-19.5 -24t-24.5 -35t-28 -43.5q-25 -42 -54.5 -87t-47.5 -73.5t-29 -45.5t-24 -36q-26 -36 -38 -36t-30.5 21.5t-16.5 36.5q8 39 35 134t33 168.5t8 104.5t17 31q21 0 41 -21.5t20 -44.5q0 -88 -66 -290q109 199 165 276t108 77q24 0 57 -41t33 -89.5t-17 -106.5 q122 237 217 237z" />
<glyph unicode="n" horiz-adv-x="529" d="M388 509q33 0 66.5 -40.5t33.5 -85.5q0 -71 -33 -173q-62 -194 -107 -194q-21 0 -21 27q0 22 23 87q60 173 60 235q0 22 -9.5 37.5t-19.5 15.5t-20.5 -6t-23 -19.5t-24 -27.5t-28 -39t-28.5 -44q-67 -103 -100.5 -156.5t-46.5 -73.5q-26 -36 -39 -36t-31.5 21.5t-15 39 t20 69.5t24.5 83q26 97 30 216q2 36 5.5 51.5t14.5 15.5q20 0 40.5 -22t20.5 -51t-16 -107t-42 -153q98 168 161 249t105 81z" />
<glyph unicode="o" horiz-adv-x="452" d="M169 345q-50 -88 -50 -167.5t39 -97.5q75 13 127 98t52 163q0 35 -12 66t-34 44q-72 -18 -122 -106zM416 342q0 -121 -78.5 -223.5t-182.5 -102.5q-51 0 -84 46t-33 118.5t34 150t90.5 128t116 50.5t98.5 -50.5t39 -116.5z" />
<glyph unicode="p" horiz-adv-x="508" d="M49.5 -231.5q-5.5 -9.5 -14.5 -9.5t-23.5 20t-14.5 38.5t29 132.5q90 357 100 535q2 21 7.5 25.5t18 4.5t36 -24t24.5 -57q0 -15 -7 -47q92 125 186 125q43 0 73.5 -53.5t30.5 -121.5t-56 -144.5t-135.5 -126t-145.5 -49.5q-24 0 -41 6v-1q-3 -12 -9.5 -41.5t-11 -49.5 t-11.5 -49t-12.5 -48t-11.5 -37.5t-11.5 -28zM148 91q84 0 174.5 80.5t90.5 170t-40 89.5t-107.5 -69t-107.5 -175l-1 1l-23 -96q4 -1 14 -1z" />
<glyph unicode="q" horiz-adv-x="489" d="M431 -83q10 0 17 -6.5t8.5 -15.5t-9 -19.5t-39 -27t-63 -40.5t-55 -37.5t-31.5 -13.5t-23.5 20t-12.5 31.5t1.5 19t5.5 20.5t9 26.5t13.5 37.5t17 46.5t22.5 61t27 72.5q-35 -35 -76.5 -55.5t-77 -20.5t-74 41t-38.5 84t27.5 107t69 122t96 98.5t99 40.5t81 -36t36.5 -60 t-16 -24q-12 0 -38.5 22t-46.5 22q-44 0 -100.5 -56.5t-95 -127.5t-38.5 -114q0 -17 11.5 -29t26.5 -13q56 -2 128 62t97 162q4 14 19.5 14t35 -13.5t19.5 -28t-17 -63t-58.5 -158.5t-74.5 -203q77 52 117 52z" />
<glyph unicode="r" horiz-adv-x="326" d="M120 509q19 0 35 -23q24 -35 14 -121q42 67 76.5 97.5t78 40t55.5 -11.5t-31 -42q-56 -24 -95 -71q-55 -68 -123 -282q-20 -60 -30 -71.5t-20 -11.5q-19 -1 -31 26.5t-1 58.5q59 174 54 295q0 17 -1.5 48.5t-0.5 44.5q3 23 20 23z" />
<glyph unicode="s" horiz-adv-x="421" d="M377 472q29 -37 29 -58.5t-15 -21.5q-11 0 -34 18.5t-47.5 18.5t-76.5 -29t-52 -61q0 -15 29 -37t63.5 -43.5t63.5 -55.5t29 -74t-53.5 -76.5t-125.5 -36.5t-126.5 34.5t-54.5 62.5t21 28q11 0 37 -18q52 -35 108 -35t82.5 14.5t26.5 38t-29 49.5t-64 45.5t-64 48.5 t-29 59q0 53 82 109.5t137 56.5q34 0 63 -37z" />
<glyph unicode="t" horiz-adv-x="364" d="M136 112q0 -20 23 -20q40 0 93.5 21t59.5 21q17 0 17 -17q0 -27 -59 -64t-106.5 -37t-78 25.5t-30.5 53.5t11.5 71.5t33.5 114.5t35 122q-48 -10 -62.5 -10t-29 15t-14.5 29q0 22 125 44q16 88 18.5 126t6 44.5t17 6.5t37 -20.5t23.5 -43.5t-17 -101q52 6 91 6 q59 0 59 -24q0 -15 -31 -24t-137 -30q-23 -83 -54 -184t-31 -125z" />
<glyph unicode="u" horiz-adv-x="479" d="M314 16q-13 0 -21.5 12t-7.5 34q4 41 25 110q-42 -69 -91.5 -112.5t-91 -43.5t-76.5 37t-35 78q0 61 26.5 152.5t62 158.5t58.5 67q16 0 28.5 -15.5t12.5 -30t-27 -68.5t-53.5 -129.5t-26.5 -135.5q0 -17 10.5 -28.5t25.5 -11.5q40 0 94.5 69t97 158.5t53.5 135t15 51 t14 5.5q18 0 37.5 -30t12.5 -54l-110 -367q-12 -42 -33 -42z" />
<glyph unicode="v" horiz-adv-x="422" d="M376 509q15 0 31 -12t16 -31.5t-75.5 -185t-103 -216.5t-50.5 -51q-13 0 -30.5 18.5t-26.5 41.5q-27 64 -57.5 202t-30.5 205q0 29 17 29q20 0 42 -17.5t26.5 -36t11.5 -89.5q14 -163 51 -252q27 59 70 168t69.5 168t39.5 59z" />
<glyph unicode="w" horiz-adv-x="678" d="M442 509q97 0 151.5 -71t54.5 -170q0 -85 -48 -164q-24 -39 -62.5 -63.5t-84.5 -24.5q-60 0 -100 66t-52 159q-48 -61 -85 -110t-52 -68q-37 -47 -65 -47q-14 0 -30 26t-16 54q0 70 23.5 194t23.5 183q0 37 18 37q21 0 46.5 -23t25.5 -41t-29.5 -133.5t-30.5 -180.5 q59 88 113 145t86 57q30 0 47 -118q7 -45 28 -82t55 -37q46 0 79.5 48t33.5 127t-33.5 119.5t-81.5 40.5q-22 0 -41.5 19.5t-19.5 35.5q0 22 46 22z" />
<glyph unicode="x" horiz-adv-x="422" d="M413 509q14 0 31 -15t17 -25.5t-6.5 -18t-21.5 -20.5t-29 -27.5t-35 -41t-50.5 -64t-49.5 -61.5q22 -40 61 -99t48.5 -76t9.5 -25q0 -20 -23 -20q-43 0 -144 163q-104 -126 -127 -144.5t-35.5 -18.5t-28 15t-15.5 28q0 5 21.5 27t65 67t80.5 92q-46 81 -79 152t-33 91.5 t17 20.5q25 0 52 -11.5t27 -28.5q0 -45 63 -161q83 113 122 157t62 44z" />
<glyph unicode="y" horiz-adv-x="520" d="M168 16q-43 0 -77.5 38t-34.5 83q0 94 54.5 233t88.5 139q16 0 30.5 -15.5t14.5 -31t-27 -70.5q-81 -165 -81 -262q0 -17 10.5 -28.5t26.5 -11.5q58 -1 132 126t117 265q4 17 7.5 22.5t13.5 5.5q22 0 41 -31.5t7 -66.5l-181 -514q-50 -141 -146 -141q-55 0 -106.5 34 t-51.5 71q0 13 11.5 29t19 16t21 -14t28.5 -30q39 -44 79 -44t67 77l77 219q-70 -98 -141 -98z" />
<glyph unicode="z" horiz-adv-x="459" d="M414 410q0 -37 -44.5 -86.5t-97.5 -87.5q-142 -104 -142 -124q0 -18 29 -18q44 0 132 15t110 15q36 0 36 -26q0 -28 -104.5 -55.5t-186.5 -27.5q-43 0 -77.5 31.5t-34.5 58t48 73t106 88.5q153 112 153 142q0 12 -19.5 16.5t-57.5 4.5t-75.5 -6t-53.5 -6t-33.5 19.5 t-17.5 35.5t44 26.5t115.5 10.5t115.5 -21q20 -9 37.5 -34.5t17.5 -43.5z" />
<glyph unicode="~" horiz-adv-x="595" d="M240 429q27 0 49.5 -17.5t36.5 -38.5q38 -58 74 -61q21 2 38.5 18t27.5 34q24 47 47.5 47t23.5 -34q-1 -47 -42.5 -94.5t-92.5 -47.5q-74 0 -156 128q-28 -12 -50.5 -33.5t-33.5 -39.5q-26 -47 -49 -47q-15 0 -24 8t-8 22q1 49 54 102.5t105 53.5z" />
<glyph unicode="&#x25fc;" horiz-adv-x="510" d="M0 510h510v-510h-510v510z" />
<glyph unicode="&#x30a3;" d="M480 342l-1 1q-42 -49 -70 -77l-56 -48q-34 -26 -73 -26q0 39 12 51q20 17 59 43l99 108q27 21 37 38q9 15 9 22q0 9 19 41q18 33 33 63q18 35 21 58q31 0 38 -9q9 -7 9 -26q0 -21 -16 -54q-16 -35 -33 -57q-15 -20 -20 -34q-3 -12 -11 -23t-8 -57l8 -100l8 -9v-131 l-8 -81q-8 -67 -16 -74q-10 -8 -40 -8v166l8 8v101z" />
<glyph unicode="&#x30a8;" d="M109 124q27 27 60 36q55 12 74 16l144 24h69l8 172l8 136v28l-22 16l-84 -12q-62 -16 -126 -21v49q48 0 82 8l140 28l68 16l52 16l76 12q38 13 94 17v-49h-35l-96 -24q-60 -7 -70 -16q-8 -8 -20 -8q-13 0 -16 -4q5 -5 5 -72l-8 -140l-8 -7v-130l7 -7l109 8h300v-48h-292 l-119 -8q-12 -2 -104 -16l-104 -8q-20 -3 -87 -16l-76 -25z" />
<glyph unicode="&#x30d4;" d="M222 486q-6 14 -2 30q4 22 4 44q0 26 -3 32q-4 8 -16 20q-13 15 -13 52q39 0 55 -16t25 -43v-138l-6 -42q9 2 136 35l100 24l76 16q39 16 47 21q11 7 19 7q12 0 20 -8q8 -10 8 -20q0 -11 -12 -23q-13 -13 -39 -19q-36 -8 -87 -22l-76 -16q-98 -28 -125 -34 q-39 -10 -70 -10l-7 -92v-87q8 -31 26 -53q18 -25 71 -36l99 -12l71 8l64 8l71 8q28 10 38 18q9 6 28 6q17 0 27 -8q9 -9 9 -40h-27l-71 -24l-49 -8l-105 -8l-127 -4l-5 4l-96 8q-53 62 -80 122v114l8 129q9 50 14 57zM690 548q-49 21 -65 32q-17 12 -21 36q-4 22 2 52 q5 25 24 47q15 18 27 24q10 5 44 5t54 -20q21 -21 21 -29t8 -16t8 -35q0 -26 -17 -48q-16 -21 -57 -52zM656 621q22 -13 44 -13q19 0 25 4q5 8 7 14q4 14 4 25q0 15 -15 30q-17 15 -21 15q-8 0 -16 -7q-7 -4 -19 -20q-9 -12 -9 -48z" />
<glyph unicode="&#x30e9;" d="M725 464l-76 -4l-71 -16l-68 -16q-30 -9 -108 -32l-68 -16q-29 -10 -39 -20q-8 -8 -31 -8q-22 0 -32 8q-8 10 -8 20q0 11 8 19q9 9 35 15q31 7 71 22l68 16q63 20 76 20q15 0 30 15l79 13l68 12h116q17 -19 17 -35q0 -19 -21 -53l-24 -63q-16 -35 -46 -95 q-12 -21 -22 -34q-7 -6 -7 -15q0 -7 -21 -33t-45 -57l-77 -77l-56 -45q-40 -23 -60 -37l-52 23q51 43 94 71l71 55l12 20l64 64q26 43 46 80q16 32 16 37q0 9 12 21q12 11 25 46q12 38 24 79zM270 591l-7 32q16 16 155 57l80 20l72 20l49 8h77l19 -25q-25 -25 -86 -39 l-79 -8l-96 -32q-93 -24 -184 -33z" />
<glyph unicode="&#x30ea;" d="M648 744q31 0 48 -17v-259l-8 -82q-10 -33 -16 -64l-57 -170q-23 -22 -23 -34t-21 -43q-30 -45 -49 -70q-29 -37 -44 -53l-33 11l-6 28l74 98q15 22 24 31q7 7 7 14q0 8 21 53l31 83l20 80q16 59 20 89q3 31 12 40v265zM353 696h47q0 -71 -4 -94q-4 -26 -12 -33v-281 q-32 0 -48 17v284q13 56 17 107z" />
<glyph unicode="&#x30eb;" d="M560 335l-8 333v28l24 18q22 -16 32 -36v-362l-8 -217l-5 -33q44 34 76 60l99 99q38 59 54 79h32l18 -24l-43 -61l-25 -36l-93 -93l-64 -52l-81 -55l-32 25q0 50 8 101l8 218zM352 479l-8 133v36q39 0 56 -17v-163l-16 -146q-8 -17 -12 -37t-13 -29t-16 -35 q-5 -19 -24 -59q-15 -32 -15 -40q0 -9 -16 -25q-17 -17 -20 -28q-4 -14 -4 -19q0 -10 -26 -35l-33 11q-5 28 22 73q24 40 62 124l27 87q14 57 20 87l8 75z" />
<glyph unicode="&#x30f3;" d="M832 528q0 -47 -20 -77q-10 -15 -20 -30.5t-21 -31.5q-20 -30 -32 -37q-9 -5 -13 -9l-72 -88q-48 -46 -125 -117l-56 -49q-64 -35 -70 -36q-13 -5 -30 -24q-21 -21 -38 -28q-19 -8 -31 -8q-14 0 -33 17q-19 19 -28 32q-11 16 -11 26q0 12 9 19q7 9 19 9q11 0 19 -8 q9 -9 12 -20q2 -6 8 -16q6 -4 9 -4q4 0 35 23l96 64q55 42 80 63l86 79q5 12 26 33t26 34l57 57l46 69q0 17 20 37q21 21 52 21zM436 469q-12 11 -61 65l-56 40q-31 26 -42 26t-21 8q-8 10 -8 20q0 11 17 28q35 -3 79 -25l65 -49l53 -53q18 -27 18 -37t-17 -29z" />
<glyph unicode="&#x30f4;" d="M648 528h-59l-40 -8l-95 -16q-71 -24 -99 -31q-45 -12 -56 -22q-13 -11 -20 -11q-8 0 -11 -3q-4 -4 -4 -14q0 -9 12 -62l4 -73l-24 -18l-23 18l-13 82l-20 73q0 14 -16 30t-16 27q0 10 8 20q8 8 32 8q23 -31 31 -40q36 5 82 24l71 19q20 17 32 43v107q-24 24 -24 35 q0 12 9 19q7 9 19 9q11 0 19 -8t25 -8v-166l-1 -3l19 9l90 8h115q17 -17 17 -52l-8 -82l-20 -68q-31 -85 -45 -107q-17 -27 -36 -69q-16 -34 -61 -111l-83 -76q-3 -10 -18 -22q-14 -11 -83 -30l-7 33l16 14l72 48l51 55l35 52l40 55l59 139q17 52 24 82v91zM688 704 q32 0 57 -25q23 -23 48 -53q23 -28 23 -58l-25 -19q-35 36 -74 81q-29 35 -29 74zM768 728v56q30 0 49 -9l54 -54q4 -10 21 -33q12 -16 12 -32t-8 -24q-10 -8 -40 -8q0 26 -22 55l-49 49h-17z" />
<glyph unicode="&#x30f5;" d="M152 32l31 22l83 83q18 34 20 49q1 13 10 22q9 8 20 58l12 67v23q-60 -25 -80 -26q-23 -2 -74 48q10 19 10 38q22 0 34 -4q14 -4 24 -15q70 23 87 33q17 11 20 29t3 40t-8 30t-8 31q71 0 96 -25q-5 -49 -14 -87l16 8l111 8l16 10l39 -34q0 -40 -8 -101l-8 -96l-16 -65 l-25 -69q-32 -59 -55 -85q-39 0 -48 9q-8 8 -8 16t-24 32t-24 47q22 0 32 -8q10 -10 23 -13q10 -2 25 -7q0 11 9 20q7 7 23 54l16 79v79l7 74q-37 -6 -75 -15q-36 -9 -45 -16l-23 -117l-20 -76q-3 -27 -13 -41q-11 -17 -16 -30l-62 -61l-62 -38l-51 -5v25z" />
<glyph unicode="&#x30f6;" d="M420 383q-17 -8 -38 -15l-69 -8q-14 -24 -20 -38q-5 -17 -5 -24t-11 -26q-9 -16 -26 -31q-19 -19 -43 -37v-20h-56q0 23 18 44q21 24 25 36q6 16 18 28q13 12 17 32q4 14 18 50l24 97q8 16 8 45q0 30 -26 60l18 24q71 0 96 -25q-5 -56 -29 -143q23 0 50 12l77 20l69 12 q53 3 87 0q34 -5 46 -17t12 -60l-96 13l-74 -10l1 -2l5 -9q4 -8 4 -52l-16 -81q-21 -69 -57 -147l-54 -53q-32 -25 -58 -37q-28 -13 -47 -13v23l50 58l71 94l19 82l12 84q0 13 -3 19t-17 15z" />
<glyph unicode="&#x30f7;" />
<glyph unicode="&#x30f8;" />
<glyph unicode="&#x30f9;" />
<glyph unicode="&#x30fa;" />
<glyph unicode="&#x30fb;" d="M416 376q0 65 73 88q62 15 98 -46q27 -49 -13 -96l-7 -4q-12 -17 -36 -22l-8 3q-19 -3 -42 -3q-31 17 -36 19q-29 43 -29 61z" />
<glyph unicode="&#x30fc;" d="M128 376v37l27 11l228 -12q41 10 50 20l115 -8h48l111 8l69 8q10 8 56 8q0 -47 -16 -64l-140 -8h-64l-128 8l-47 -4l-80 -8l-4 4h-225z" />
<glyph unicode="&#x3220;" />
<glyph unicode="&#x3221;" />
<glyph unicode="&#x3222;" />
<glyph unicode="&#x3223;" />
<glyph unicode="&#x3224;" />
<glyph unicode="&#x3225;" />
<glyph unicode="&#x3226;" />
<glyph unicode="&#x3227;" />
<glyph unicode="&#x3228;" />
<glyph unicode="&#x3229;" />
<glyph unicode="&#x322a;" />
<glyph unicode="&#x322b;" />
<glyph unicode="&#x322c;" />
<glyph unicode="&#x322d;" />
<glyph unicode="&#x322e;" />
<glyph unicode="&#x322f;" />
<glyph unicode="&#x3230;" />
<glyph unicode="&#x3233;" />
<glyph unicode="&#x3234;" />
<glyph unicode="&#x3235;" />
<glyph unicode="&#x3236;" />
<glyph unicode="&#x3237;" />
<glyph unicode="&#x3238;" />
<glyph unicode="&#x323a;" />
<glyph unicode="&#x323b;" />
<glyph unicode="&#x323c;" />
<glyph unicode="&#x323d;" />
<glyph unicode="&#x323e;" />
<glyph unicode="&#x323f;" />
<glyph unicode="&#x3240;" />
<glyph unicode="&#x3241;" />
<glyph unicode="&#x3242;" />
<glyph unicode="&#x3243;" />
<glyph unicode="&#x3280;" />
<glyph unicode="&#x3281;" />
<glyph unicode="&#x3282;" />
<glyph unicode="&#x3283;" />
<glyph unicode="&#x3284;" />
<glyph unicode="&#x3285;" />
<glyph unicode="&#x3286;" />
<glyph unicode="&#x3287;" />
<glyph unicode="&#x3288;" />
<glyph unicode="&#x3289;" />
<glyph unicode="&#x328a;" />
<glyph unicode="&#x328b;" />
<glyph unicode="&#x328c;" />
<glyph unicode="&#x328d;" />
<glyph unicode="&#x328e;" />
<glyph unicode="&#x328f;" />
<glyph unicode="&#x3290;" />
<glyph unicode="&#x3291;" />
<glyph unicode="&#x3292;" />
<glyph unicode="&#x3293;" />
<glyph unicode="&#x3294;" />
<glyph unicode="&#x3295;" />
<glyph unicode="&#x3296;" />
<glyph unicode="&#x3297;" />
<glyph unicode="&#x3298;" />
<glyph unicode="&#x3299;" />
<glyph unicode="&#x329a;" />
<glyph unicode="&#x329b;" />
<glyph unicode="&#x329c;" />
<glyph unicode="&#x329d;" />
<glyph unicode="&#x329e;" />
<glyph unicode="&#x329f;" />
<glyph unicode="&#x32a0;" />
<glyph unicode="&#x32a1;" />
<glyph unicode="&#x32a2;" />
<glyph unicode="&#x32a3;" />
<glyph unicode="&#x32a9;" />
<glyph unicode="&#x32aa;" />
<glyph unicode="&#x32ab;" />
<glyph unicode="&#x32ac;" />
<glyph unicode="&#x32ad;" />
<glyph unicode="&#x32ae;" />
<glyph unicode="&#x32af;" />
<glyph unicode="&#x32b0;" />
<glyph unicode="&#x32c0;" />
<glyph unicode="&#x32c1;" />
<glyph unicode="&#x32c2;" />
<glyph unicode="&#x32c3;" />
<glyph unicode="&#x32c4;" />
<glyph unicode="&#x32c5;" />
<glyph unicode="&#x32c6;" />
<glyph unicode="&#x32c7;" />
<glyph unicode="&#x32c8;" />
<glyph unicode="&#x32c9;" />
<glyph unicode="&#x32ca;" />
<glyph unicode="&#x32cb;" />
<glyph unicode="&#x32d0;" />
<glyph unicode="&#x32d1;" />
<glyph unicode="&#x32d2;" />
<glyph unicode="&#x32d3;" />
<glyph unicode="&#x32d4;" />
<glyph unicode="&#x32d5;" />
<glyph unicode="&#x32d6;" />
<glyph unicode="&#x32d7;" />
<glyph unicode="&#x32d8;" />
<glyph unicode="&#x32d9;" />
<glyph unicode="&#x32da;" />
<glyph unicode="&#x32db;" />
<glyph unicode="&#x32dc;" />
<glyph unicode="&#x32dd;" />
<glyph unicode="&#x32de;" />
<glyph unicode="&#x32df;" />
<glyph unicode="&#x32e0;" />
<glyph unicode="&#x32e1;" />
<glyph unicode="&#x32e2;" />
<glyph unicode="&#x32e3;" />
<glyph unicode="&#x32e4;" />
<glyph unicode="&#x32e5;" />
<glyph unicode="&#x32e6;" />
<glyph unicode="&#x32e7;" />
<glyph unicode="&#x32e8;" />
<glyph unicode="&#x32e9;" />
<glyph unicode="&#x32ea;" />
<glyph unicode="&#x32eb;" />
<glyph unicode="&#x32ec;" />
<glyph unicode="&#x32ed;" />
<glyph unicode="&#x32ee;" />
<glyph unicode="&#x32ef;" />
<glyph unicode="&#x32f0;" />
<glyph unicode="&#x32f1;" />
<glyph unicode="&#x32f2;" />
<glyph unicode="&#x32f3;" />
<glyph unicode="&#x32f4;" />
<glyph unicode="&#x32f5;" />
<glyph unicode="&#x32f6;" />
<glyph unicode="&#x32f7;" />
<glyph unicode="&#x32f8;" />
<glyph unicode="&#x32f9;" />
<glyph unicode="&#x32fa;" />
<glyph unicode="&#x32fb;" />
<glyph unicode="&#x32fc;" />
<glyph unicode="&#x32fd;" />
<glyph unicode="&#x32fe;" />
<glyph unicode="&#x3300;" />
<glyph unicode="&#x3301;" />
<glyph unicode="&#x3302;" />
<glyph unicode="&#x3304;" />
<glyph unicode="&#x3305;" />
<glyph unicode="&#x3306;" />
<glyph unicode="&#x3307;" />
<glyph unicode="&#x3308;" />
<glyph unicode="&#x3309;" />
<glyph unicode="&#x330a;" />
<glyph unicode="&#x330b;" />
<glyph unicode="&#x330c;" />
<glyph unicode="&#x330e;" />
<glyph unicode="&#x330f;" />
<glyph unicode="&#x3310;" />
<glyph unicode="&#x3311;" />
<glyph unicode="&#x3312;" />
<glyph unicode="&#x3313;" />
<glyph orientation="v" d="M804 552l-44 -48l-48 -64q-30 -50 -54 -74q-22 -22 -50 -22q0 22 28 60l48 64l52 68l48 64q15 22 35.5 51.5t24.5 34.5q20 31 20 42q0 12 6 18t26 6q0 -51 -14 -76q-2 -4 -28 -44q-14 -20 -14 -32q0 -10 8 -44v-152q-2 -12 -16 -104l-8 -96l-12 -12l-32 8q0 48 12 108 l8 80q8 32 16 40v112z" />
<glyph orientation="v" d="M471 1l9 36v420l-12 11q-33 -36 -61 -59q-31 -25 -40 -25q-7 0 -23 -11q-17 -12 -28 -23q-14 -14 -28 -19q-18 -7 -37 -20q-21 -15 -59 -15v40q31 26 49 37q17 11 25 11q9 0 38 19l55 39l48 36l86 86q2 9 21 28q11 11 40 49l48 56l13 20q-7 13 -7 43l23 17q23 -8 33 -18 q8 -8 8 -30q0 -23 -18 -50l-62 -62q0 -15 -21 -41q-23 -28 -64 -69l29 -36v-404q-9 -59 -40 -84z" />
<glyph orientation="v" d="M109 124q27 27 60 36q55 12 74 16l144 24h69l8 172l8 136v28l-22 16l-84 -12q-62 -16 -126 -21v49q48 0 82 8l140 28l68 16l52 16l76 12q38 13 94 17v-49h-35l-96 -24q-60 -7 -70 -16q-8 -8 -20 -8q-13 0 -16 -4q5 -5 5 -72l-8 -140l-8 -7v-130l7 -7l109 8h300v-48h-292 l-119 -8q-12 -2 -104 -16l-104 -8q-20 -3 -87 -16l-76 -25z" />
<glyph orientation="v" d="M222 486q-6 14 -2 30q4 22 4 44q0 26 -3 32q-4 8 -16 20q-13 15 -13 52q39 0 55 -16t25 -43v-138l-6 -42q9 2 136 35l100 24l76 16q39 16 47 21q11 7 19 7q12 0 20 -8q8 -10 8 -20q0 -11 -12 -23q-13 -13 -39 -19q-36 -8 -87 -22l-76 -16q-98 -28 -125 -34 q-39 -10 -70 -10l-7 -92v-87q8 -31 26 -53q18 -25 71 -36l99 -12l71 8l64 8l71 8q28 10 38 18q9 6 28 6q17 0 27 -8q9 -9 9 -40h-27l-71 -24l-49 -8l-105 -8l-127 -4l-5 4l-96 8q-53 62 -80 122v114l8 129q9 50 14 57zM690 548q-49 21 -65 32q-17 12 -21 36q-4 22 2 52 q5 25 24 47q15 18 27 24q10 5 44 5t54 -20q21 -21 21 -29t8 -16t8 -35q0 -26 -17 -48q-16 -21 -57 -52zM656 621q22 -13 44 -13q19 0 25 4q5 8 7 14q4 14 4 25q0 15 -15 30q-17 15 -21 15q-8 0 -16 -7q-7 -4 -19 -20q-9 -12 -9 -48z" />
<glyph orientation="v" d="M725 464l-76 -4l-71 -16l-68 -16q-30 -9 -108 -32l-68 -16q-29 -10 -39 -20q-8 -8 -31 -8q-22 0 -32 8q-8 10 -8 20q0 11 8 19q9 9 35 15q31 7 71 22l68 16q63 20 76 20q15 0 30 15l79 13l68 12h116q17 -19 17 -35q0 -19 -21 -53l-24 -63q-16 -35 -46 -95 q-12 -21 -22 -34q-7 -6 -7 -15q0 -7 -21 -33t-45 -57l-77 -77l-56 -45q-40 -23 -60 -37l-52 23q51 43 94 71l71 55l12 20l64 64q26 43 46 80q16 32 16 37q0 9 12 21q12 11 25 46q12 38 24 79zM270 591l-7 32q16 16 155 57l80 20l72 20l49 8h77l19 -25q-25 -25 -86 -39 l-79 -8l-96 -32q-93 -24 -184 -33z" />
<glyph orientation="v" d="M648 744q31 0 48 -17v-259l-8 -82q-10 -33 -16 -64l-57 -170q-23 -22 -23 -34t-21 -43q-30 -45 -49 -70q-29 -37 -44 -53l-33 11l-6 28l74 98q15 22 24 31q7 7 7 14q0 8 21 53l31 83l20 80q16 59 20 89q3 31 12 40v265zM353 696h47q0 -71 -4 -94q-4 -26 -12 -33v-281 q-32 0 -48 17v284q13 56 17 107z" />
<glyph orientation="v" d="M560 335l-8 333v28l24 18q22 -16 32 -36v-362l-8 -217l-5 -33q44 34 76 60l99 99q38 59 54 79h32l18 -24l-43 -61l-25 -36l-93 -93l-64 -52l-81 -55l-32 25q0 50 8 101l8 218zM352 479l-8 133v36q39 0 56 -17v-163l-16 -146q-8 -17 -12 -37t-13 -29t-16 -35 q-5 -19 -24 -59q-15 -32 -15 -40q0 -9 -16 -25q-17 -17 -20 -28q-4 -14 -4 -19q0 -10 -26 -35l-33 11q-5 28 22 73q24 40 62 124l27 87q14 57 20 87l8 75z" />
<glyph orientation="v" d="M832 528q0 -47 -20 -77q-10 -15 -20 -30.5t-21 -31.5q-20 -30 -32 -37q-9 -5 -13 -9l-72 -88q-48 -46 -125 -117l-56 -49q-64 -35 -70 -36q-13 -5 -30 -24q-21 -21 -38 -28q-19 -8 -31 -8q-14 0 -33 17q-19 19 -28 32q-11 16 -11 26q0 12 9 19q7 9 19 9q11 0 19 -8 q9 -9 12 -20q2 -6 8 -16q6 -4 9 -4q4 0 35 23l96 64q55 42 80 63l86 79q5 12 26 33t26 34l57 57l46 69q0 17 20 37q21 21 52 21zM436 469q-12 11 -61 65l-56 40q-31 26 -42 26t-21 8q-8 10 -8 20q0 11 17 28q35 -3 79 -25l65 -49l53 -53q18 -27 18 -37t-17 -29z" />
<glyph orientation="v" d="M648 528h-59l-40 -8l-95 -16q-71 -24 -99 -31q-45 -12 -56 -22q-13 -11 -20 -11q-8 0 -11 -3q-4 -4 -4 -14q0 -9 12 -62l4 -73l-24 -18l-23 18l-13 82l-20 73q0 14 -16 30t-16 27q0 10 8 20q8 8 32 8q23 -31 31 -40q36 5 82 24l71 19q20 17 32 43v107q-24 24 -24 35 q0 12 9 19q7 9 19 9q11 0 19 -8t25 -8v-166l-1 -3l19 9l90 8h115q17 -17 17 -52l-8 -82l-20 -68q-31 -85 -45 -107q-17 -27 -36 -69q-16 -34 -61 -111l-83 -76q-3 -10 -18 -22q-14 -11 -83 -30l-7 33l16 14l72 48l51 55l35 52l40 55l59 139q17 52 24 82v91zM688 704 q32 0 57 -25q23 -23 48 -53q23 -28 23 -58l-25 -19q-35 36 -74 81q-29 35 -29 74zM768 728v56q30 0 49 -9l54 -54q4 -10 21 -33q12 -16 12 -32t-8 -24q-10 -8 -40 -8q0 26 -22 55l-49 49h-17z" />
<glyph orientation="v" d="M416 376q0 65 73 88q62 15 98 -46q27 -49 -13 -96l-7 -4q-12 -17 -36 -22l-8 3q-19 -3 -42 -3q-31 17 -36 19q-29 43 -29 61z" />
<glyph orientation="v" d="M188 356l-22 28l26 32l204 8h467q17 -16 17 -32t-17 -32l-459 -8z" />
</font>
</defs>
</svg>
